<svg xmlns="http://www.w3.org/2000/svg"><symbol id="calendar" viewBox="0 -150 929 1000"><path d="M858 779H697V618h161v161zm-197 0H483V618h178v161zm197-197H697V404h161v178zm-197 0H483V404h178v178zm197-214H697V207h161v161zM447 779H268V618h179v161zm214-411H483V207h178v161zM233 779H72V618h161v161zm214-197H268V404h179v178zm196-482V-61c0-4.667 2-8.667 6-12s8-5.333 12-6h36c4.666 0 8.666 2 12 6s5.334 8 6 12v161c0 4.667-2 9-6 13s-8 5.667-12 5h-36c-4.666 0-8.666-1.667-12-5s-5.334-7.667-6-13zM233 582H72V404h161v178zm214-214H268V207h179v161zm-214 0H72V207h161v161zm-18-268V-61c0-4.667 1.667-8.667 5-12s7.667-5.333 13-6h35c5.333 0 9.667 2 13 6s5 8 5 12v161c0 4.667-1.667 9-5 13s-7.667 5.667-13 5h-35c-5.333 0-9.667-1.667-13-5s-5-7.667-5-13zM0 64v715c0 19.333 7.333 36 22 50s31.333 21 50 21h786c19.334 0 36-7 50-21s21-30.666 21-50V64c0-19.333-7-36-21-50S877.334-7 858-7h-72v-54c0-24.667-8.666-45.667-26-63s-38.334-26-63-26h-36c-24.666 0-45.667 8.667-63 26s-26 38.333-26 63v54H358v-54c0-24.667-9-45.667-27-63s-39-26-63-26h-35c-24.667 0-45.667 8.667-63 26s-26.333 38.333-27 63v54H72C52.667-7 36 0 22 14S.667 44.667 0 64z"/></symbol><symbol id="cancel" viewBox="61 -17 663 663"><path d="M724 112c0-14.666-5-27.334-15-38L633-2c-10.667-10-23.333-15-38-15s-27.333 5-38 15L393 163 229-2c-10.666-10-23.334-15-38-15s-27.334 5-38 15L77 74c-10.666 10.666-16 23.334-16 38s5.334 27.334 16 38l164 164L77 478c-10.666 10.667-16 23.333-16 38s5.334 27.333 16 38l76 76c10.666 10.667 23.334 16 38 16s27.334-5.333 38-16l164-164 164 164c10.667 10.667 23.333 16 38 16s27.333-5.333 38-16l76-76c10-10 15-22.667 15-38s-5-28-15-38L545 314l164-164c10-10 15-22.666 15-38z"/></symbol><symbol id="cutlery" viewBox="0 -150 786 1000.078"><path d="M347-138.923c-7.333-8-16-11.667-26-11s-18.334 4.333-25 11-10 15-10 25v232c0 9.333-3.666 17.667-11 25s-15.666 11-25 11-17.666-3.667-25-11-11-15.667-11-25v-232c-.666-8.667-4-17-10-25s-14.334-11.667-25-11-19.334 4.333-26 11-10 15-10 25v232c0 9.333-3.666 17.667-11 25s-15.666 11-25 11-17.666-3.667-25-11-11-15.667-11-25v-232c.666-8.667-2.666-17-10-25s-15.666-11.667-25-11-17.667 4.333-25 11c-7.334 6.667-11 15-11 25v357c0 22.667 6.666 43.333 20 62 13.334 18.666 30.334 31.666 51 39v435c.666 19.332 8 36 22 50s30.666 21 50 21h71c20 0 37-7 51-21s21-30.668 21-50v-435c20.667-7.334 37.667-20.334 51-39 13.333-18.667 20-39.333 20-62v-357c.667-8.667-2.667-17-10-25zm428 0c-6.667-7.333-15-11-25-11H607c-49.333-.667-91.333 16.667-126 52s-52 77.667-52 127v446c0 5.334 1.667 9.666 5 13s7.333 5 12 5h125v286c.667 19.332 8 36 22 50s30.667 21 50 21h71c20 0 37-7 51-21s21-30.668 21-50v-893c-.667-9.333-4.333-17.667-11-25z"/></symbol><symbol id="email" viewBox="-0.036 -79 1000.036 786"><path d="M-.036 174v443c0 24.666 8.667 45.666 26 63 17.333 17.334 38.333 26.334 63 27h822c24 0 45-9 63-27s26.667-39 26-63V174c-16.666 18.667-35.334 35-56 49-134.666 91.334-227.334 155.334-278 192-21.333 16-38.333 28.334-51 37s-30.333 17.666-53 27-43 13.666-61 13h-2c-18.667 0-39-4.334-61-13s-39.667-17.666-53-27-30.333-21.666-51-37c-63.333-45.334-156-109.334-278-192-21.333-14.667-40-31-56-49zm0-164c0 29.333 9 57.333 27 84s40.667 49.667 68 69c140 97.334 227.333 157.666 262 181 3.333 2.666 11 8.334 23 17s22 16 30 22 17.667 12 29 18 22.333 11 33 15 19.667 5.666 27 5h2c8 0 17-1.666 27-5s21-8.334 33-15 21.667-12.666 29-18 17.333-12.666 30-22 20.333-15 23-17c34-23.334 83-57 147-101s102-70.667 114-80c23.334-15.333 45-36.667 65-64s30.334-53 31-77c0-28.667-7.666-52.667-23-72s-37.334-29-66-29h-822c-24 0-44.667 8.667-62 26S.631-14.667-.036 10z"/></symbol><symbol id="facebook" viewBox="53 -79 482 929"><path d="M408-79c-64.667 0-116.334 19-155 57s-58 91.667-58 161v122H53v165h142v424h171V426h142l22-165H366V155c0-26.667 5.667-46.667 17-60s33-20 65-20h87V-72c-30-4.667-72.333-7-127-7z"/></symbol><symbol id="female" viewBox="0 -150.05 714 982.264"><path d="M0 421.164c0 15.334 5 28 15 38s22.667 15.334 38 16c19.333 0 34.333-8 45-24l127-190h25v73l-138 230c-3.333 5.334-5 11.334-5 18 0 9.334 3.333 17.666 10 25s15.333 11 26 11h107v152c0 16.667 6 31.334 18 44 12 12.667 26.667 18.667 44 18h89c17.334 0 32.334-6 45-18s18.666-26.666 18-44v-152h107c10 0 18.334-3.666 25-11s10.334-15.666 11-25c0-6.666-1.666-12.666-5-18l-138-230v-73h25l127 190c10.666 16 25.334 24 44 24 15.334 0 28-5.334 38-16s15.334-23.334 16-38c0-10.666-3-20.334-9-29l-143-215c-27.334-39.333-60-59-98-59H250c-38.667 0-71.667 19.667-99 59l-142 215c-6 8.666-9 18.334-9 29zm232-446c0 34.667 12 64 36 88s53.667 36.333 89 37 64.666-11.667 88-37 35.666-54.667 37-88-11-63-37-89-55.333-38-88-36-62.333 14-89 36-38.667 51.667-36 89z"/></symbol><symbol id="instagram" viewBox="-0.029 -79 857.059 858"><path d="M750 670c-6.667 6.666-14.667 10-24 10H130c-10 0-18.334-3.334-25-10s-10-14.666-10-24V284h79c-7.334 23.334-11 47.666-11 73 0 71.334 26 132.334 78 183s114.667 76 188 76c48.667 0 93.333-11.666 134-35s73-54.666 97-94 36-82.666 36-130c0-25.334-3.667-49.666-11-73h75v362c0 9.334-3.333 17.334-10 24zM551 466c-33.333 32.666-74 49-122 49-46 0-86.333-16.334-121-49-34.666-32.666-51.666-72-51-118s17.666-85.333 51-118c33.333-32.667 73.667-49 121-49s88 16.333 122 49 51 72 51 118c-.667 46-17.667 85.334-51 118zm198-291c-7.333 7.333-16.333 11-27 11h-98c-10.667 0-19.667-3.667-27-11s-11-16.667-11-28V55c0-10.667 3.667-19.667 11-27s16.333-11 27-11h98c10.667-.667 19.667 3 27 11s11 17 11 27v92c0 11.333-3.667 20.667-11 28zm76-221c-22-22-48-33-78-33H110c-30.666.667-56.666 11.667-78 33S0 1 0 31v638c-.666 29.334 10 55 32 77s48 33 78 33h637c30.667-.667 56.667-11.667 78-33 21.333-21.334 32-47 32-77V31c.667-29.333-10-55-32-77z"/></symbol><symbol id="leaf" viewBox="0 -7 1000.5 790.839"><path d="M704 344.84c-7.333 7.333-15.667 11-25 11-67.333 0-125.667 9.667-175 29-49.333 19.334-99.333 52-150 98-8 7.334-20.667 19.666-38 37-17.334 17.334-31 30.334-41 39-8 7.334-16.334 11-25 11-9.334-.666-17.666-4.334-25-11s-11-15-11-25c0-8.666 3.666-17 11-25 45.334-50 89-90.666 131-122 42-31.333 90.333-56.333 145-75s114-28 178-28c10 .667 18.333 4.333 25 11s10 15 10 25c.667 9.333-2.667 17.667-10 25zm292-189c-4-21.333-8.667-44.333-14-69s-14-45.667-26-63-25.333-26-40-26c-1.333-7.333-9.333-6.333-24 3s-21.333 12.333-20 9-3.667.333-15 11l-17 16-16 16c-15.333 14.667-36.667 25.333-64 32s-57.667 11-91 13-66.667 3-100 3-66.667 1.667-100 5-60.333 8.333-81 15c-39.333 13.333-77 31-113 53s-68 47.667-96 77-50 63.667-66 103c-16 39.334-24 80.334-24 123 0 20 1.666 39.334 5 58 .666 4 3.666 12.334 9 25s8 19.666 8 21c-.666 8-6.666 17-18 27s-24 20.334-38 31-26.666 23-38 37-17 27.666-17 41c0 2.666.334 5 1 7s1.334 3.666 2 5l3 6 3 6c6.666 11.334 11.666 19.334 15 24 3.334 4.667 9 9 17 13s17.666 6 29 6c10 0 21-6 33-18s22-25 30-39 16.334-27 25-39 16-18 22-18c8 0 25.666 7 53 21s43.666 21.666 49 23c51.333 18 104.667 27 160 27 83.333 0 164.667-20.334 244-61 82-40 148.667-89.666 200-149s85.667-130.666 103-214c7.333-36.667 11-72.667 11-108 1.333-14 0-31.667-4-53z"/></symbol><symbol id="menu" viewBox="0 -7 857.083 714.083"><path d="M.083 600.083v71c0 10 3.333 18.334 10 25 6.667 6.667 15.333 10.334 26 11h785c10 0 18.334-3.666 25-11 6.667-7.333 10.334-15.666 11-25v-71c0-10-3.666-18.334-11-25-7.333-6.666-15.666-10.334-25-11h-785c-10 0-18.667 3.666-26 11s-10.667 15.666-10 25zm0-286v72c0 9.334 3.333 17.666 10 25s15.333 10.666 26 10h785c10 0 18.334-3.334 25-10 6.667-6.666 10.334-15 11-25v-72c0-9.334-3.666-17.667-11-25-7.333-7.333-15.666-10.667-25-10h-785c-10 0-18.667 3.333-26 10-7.333 6.667-10.667 15-10 25zm0-285v71c0 10 3.333 18.333 10 25s15.333 10.333 26 11h785c10 0 18.334-3.667 25-11 6.667-7.333 10.334-15.667 11-25v-71c0-10-3.666-18.667-11-26-7.333-7.333-15.666-10.667-25-10h-785c-10 0-18.667 3.333-26 10s-10.666 15.334-10 26z"/></symbol><symbol id="pinterest" viewBox="0 -79 857.143 858"><path d="M800 135C760 69.667 708 17.667 644-21S508.333-79 429-79 277.666-59.667 213-21 96.666 69.667 58 135C19.333 200.333 0 272 0 350c0 86.666 23.666 165.334 71 236s109.334 123 186 157c-2-40 .334-73 7-99l55-233c-9.333-18.666-14-41.334-14-68 0-32.666 8-59.333 24-80s35.667-31 59-31c18.667-.667 33 5.333 43 18s15 28 15 46c-1.333 12.666-3.667 27-7 43s-8.667 35-16 57-12.333 39.334-15 52c-4.667 23.334-.333 43 13 59s31.333 24 54 24c39.333-.666 72-23 98-67s39-97.666 39-161c-.667-48.667-16.667-88.333-48-119s-75-46-131-46c-63.333 0-114.333 20.333-153 61-38.666 40.667-58 89-58 145 0 33.334 9.666 61.334 29 84 6 7.334 8 15.334 6 24-1.334 2.666-3 8.334-5 17s-3.334 14.334-4 17c-3.334 12-10.334 15.666-21 11-29.334-12-51.334-32.666-66-62s-22-63.334-22-102c.666-25.334 4.666-50.333 12-75s19.666-48.667 37-72 37.666-43.667 61-61 52-31.667 86-43 70.667-17 110-17c53.333 0 100.667 12 142 36s73.333 54.333 96 91 34 76.333 34 119c.667 56-9 106.334-29 151s-47.667 79.666-83 105-75.333 38-120 38c-23.333 0-44.667-5.334-64-16s-32.667-23.334-40-38c-17.333 66-27.667 105.334-31 118-6.667 26.666-21 57.334-43 92 40 12 80.667 18 122 18 77.333 0 149-19.334 215-58 66-38.667 118-90.666 156-156s57-137 57-215c2-78-17-149.667-57-215z"/></symbol><symbol id="plane" viewBox="-0.142 -7 782.191 781.224"><path d="M685 .225c-35.332 11.333-67.332 31.333-96 60l-89 89-371-89c-6-1.333-11.666.333-17 5l-71 71c-4 4-5.666 9-5 15s3.666 10.667 9 14l284 155-145 145-108-30h-5c-4.666 0-8.666 1.666-12 5l-54 54c-4 4.666-5.666 9.334-5 14 .668 6 3 10.334 7 13l141 105 105 141c3.334 4 8 6.334 14 7h1c5.334 0 9.666-1.666 13-5l53-53c5.334-5.334 7-11.334 5-18l-30-108 145-145 155 284c2.668 4.666 6.668 7.667 12 9h4c4.668 0 8.334-1 11-3l71-54c6.668-4.666 9-10.666 7-18l-90-388 90-90c29.334-28 49.668-60 61-96 11.334-36 9-63.667-7-83-20-15.333-47.666-17.333-83-6z"/></symbol><symbol id="share" viewBox="0 -79 857.019 858.019"><path d="M679 279c49.333 0 91.333-17.666 126-53s52-77.334 52-126-17.333-90.667-52-126-76.667-53-126-53-91.667 17.667-127 53-52.667 77.334-52 126c0 4.666.333 11 1 19L300 219c-34-32-74.334-48-121-48-50 0-92.334 17.666-127 53-34.667 35.334-52 77.334-52 126 0 48.667 17.333 90.667 52 126 34.666 35.333 77 53 127 53 46.666 0 87-16 121-48l201 100c-.667 8-1 14.333-1 19 0 49.333 17.333 91.333 52 126s77 52.333 127 53 92-17 126-53 51.333-78 52-126-16.667-90-52-126-77.333-53.667-126-53c-47.333 0-88 16-122 48L356 369c.667-8 1-14.334 1-19s-.333-11-1-19l201-100c34 32 74.667 48 122 48z"/></symbol><symbol id="twitter" viewBox="25 -7.117 879 714.118"><path d="M800 105.883c39.333-24 65.667-57.333 79-100-35.333 21.333-73.333 36-114 44-35.333-38-79.333-57-132-57-49.333.667-91.667 18.333-127 53s-53 77-53 127c0 13.333 1.667 27 5 41-74.667-3.333-144-21.667-208-55s-118.666-77.667-164-133c-16.666 28-25 58.332-25 91 0 31.332 7.334 60 22 86s34.334 47.332 59 64c-29.334-1.334-56.666-9-82-23v2c0 44 13.666 82.334 41 115s62 53.334 104 62c-16 4-32 6-48 6-10 0-21.334-1-34-3 12 36 33.334 65.666 64 89s65.666 35.332 105 35.998c-65.334 51.336-140 77.002-224 77.002-16 0-30.334-.666-43-2 83.334 54 175.334 81 276 81 64.667 1.332 125-8.668 181-30.002s104-48.666 144-82 74.333-72.334 103-117 50-91 64-139 21-96.333 21-145v-23c35.333-26 65.333-57 90-93-34.667 14.668-69.333 24.001-104 28.002z"/></symbol><symbol id="up" viewBox="43 143 557 325"><path d="M43 422c0 4.666 2 9 6 13l28 27c3.333 4 7.333 6 12 6s9-2 13-6l220-219 219 219c3.334 4 7.666 6 13 6s9.666-2 13-6l27-27c4-4 6-8.334 6-13s-2-9-6-13L334 149c-3.333-4-7.333-6-12-6s-9 2-13 6L49 409c-4 3.334-6 7.666-6 13z"/></symbol></svg>