<?xml version="1.0" encoding="utf-8"?>
<!-- Generator: Adobe Illustrator 15.0.0, SVG Export Plug-In . SVG Version: 6.00 Build 0)  -->
<!DOCTYPE svg PUBLIC "-//W3C//DTD SVG 1.1//EN" "http://www.w3.org/Graphics/SVG/1.1/DTD/svg11.dtd">
<svg version="1.1" id="Layer_1" xmlns="http://www.w3.org/2000/svg" xmlns:xlink="http://www.w3.org/1999/xlink" x="0px" y="0px"
	 width="929px" height="1000px" viewBox="0 -150 929 1000" enable-background="new 0 -150 929 1000" xml:space="preserve">
<path d="M858,779H697V618h161V779z M661,779H483V618h178V779z M858,582H697V404h161V582z M661,582H483V404h178V582z M858,368H697
	V207h161V368z M447,779H268V618h179V779z M661,368H483V207h178V368z M233,779H72V618h161V779z M447,582H268V404h179V582z M643,100
	V-61c0-4.667,2-8.667,6-12s8-5.333,12-6h36c4.666,0,8.666,2,12,6s5.334,8,6,12v161c0,4.667-2,9-6,13s-8,5.667-12,5h-36
	c-4.666,0-8.666-1.667-12-5S643.666,105.333,643,100z M233,582H72V404h161V582z M447,368H268V207h179V368z M233,368H72V207h161V368z
	 M215,100V-61c0-4.667,1.667-8.667,5-12s7.667-5.333,13-6h35c5.333,0,9.667,2,13,6s5,8,5,12v161c0,4.667-1.667,9-5,13
	s-7.667,5.667-13,5h-35c-5.333,0-9.667-1.667-13-5S215,105.333,215,100z M0,64v715c0,19.333,7.333,36,22,50s31.333,21,50,21h786
	c19.334,0,36-7,50-21s21-30.666,21-50V64c0-19.333-7-36-21-50S877.334-7,858-7h-72v-54c0-24.667-8.666-45.667-26-63
	s-38.334-26-63-26h-36c-24.666,0-45.667,8.667-63,26s-26,38.333-26,63v54H358v-54c0-24.667-9-45.667-27-63s-39-26-63-26h-35
	c-24.667,0-45.667,8.667-63,26s-26.333,38.333-27,63v54H72C52.667-7,36,0,22,14S0.667,44.667,0,64z"/>
</svg>
