<?xml version="1.0" encoding="utf-8"?>
<!-- Generator: Adobe Illustrator 15.0.0, SVG Export Plug-In . SVG Version: 6.00 Build 0)  -->
<!DOCTYPE svg PUBLIC "-//W3C//DTD SVG 1.1//EN" "http://www.w3.org/Graphics/SVG/1.1/DTD/svg11.dtd">
<svg version="1.1" id="Layer_1" xmlns="http://www.w3.org/2000/svg" xmlns:xlink="http://www.w3.org/1999/xlink" x="0px" y="0px"
	 width="663px" height="663px" viewBox="61 -17 663 663" enable-background="new 61 -17 663 663" xml:space="preserve">
<path d="M724,112c0-14.666-5-27.334-15-38L633-2c-10.667-10-23.333-15-38-15s-27.333,5-38,15L393,163L229-2
	c-10.666-10-23.334-15-38-15s-27.334,5-38,15L77,74c-10.666,10.666-16,23.334-16,38s5.334,27.334,16,38l164,164L77,478
	c-10.666,10.667-16,23.333-16,38s5.334,27.333,16,38l76,76c10.666,10.667,23.334,16,38,16s27.334-5.333,38-16l164-164l164,164
	c10.667,10.667,23.333,16,38,16s27.333-5.333,38-16l76-76c10-10,15-22.667,15-38s-5-28-15-38L545,314l164-164
	C719,140,724,127.334,724,112z"/>
</svg>
