<?xml version="1.0" encoding="utf-8"?>
<!-- Generator: Adobe Illustrator 15.0.0, SVG Export Plug-In . SVG Version: 6.00 Build 0)  -->
<!DOCTYPE svg PUBLIC "-//W3C//DTD SVG 1.1//EN" "http://www.w3.org/Graphics/SVG/1.1/DTD/svg11.dtd">
<svg version="1.1" id="Layer_1" xmlns="http://www.w3.org/2000/svg" xmlns:xlink="http://www.w3.org/1999/xlink" x="0px" y="0px"
	 width="786px" height="1000.078px" viewBox="0 -150 786 1000.078" enable-background="new 0 -150 786 1000.078"
	 xml:space="preserve">
<path d="M347-138.923c-7.333-8-16-11.667-26-11s-18.334,4.333-25,11s-10,15-10,25v232c0,9.333-3.666,17.667-11,25s-15.666,11-25,11
	s-17.666-3.667-25-11s-11-15.667-11-25v-232c-0.666-8.667-4-17-10-25s-14.334-11.667-25-11s-19.334,4.333-26,11s-10,15-10,25v232
	c0,9.333-3.666,17.667-11,25s-15.666,11-25,11s-17.666-3.667-25-11s-11-15.667-11-25v-232c0.666-8.667-2.666-17-10-25
	s-15.666-11.667-25-11s-17.667,4.333-25,11c-7.334,6.667-11,15-11,25v357c0,22.667,6.666,43.333,20,62
	c13.334,18.666,30.334,31.666,51,39v435c0.666,19.332,8,36,22,50s30.666,21,50,21h71c20,0,37-7,51-21s21-30.668,21-50v-435
	c20.667-7.334,37.667-20.334,51-39c13.333-18.667,20-39.333,20-62v-357C357.667-122.59,354.333-130.923,347-138.923z M775-138.923
	c-6.667-7.333-15-11-25-11H607c-49.333-0.667-91.333,16.667-126,52s-52,77.667-52,127v446c0,5.334,1.667,9.666,5,13s7.333,5,12,5
	h125v286c0.667,19.332,8,36,22,50s30.667,21,50,21h71c20,0,37-7,51-21s21-30.668,21-50v-893
	C785.333-123.256,781.667-131.59,775-138.923z"/>
</svg>
