<?xml version="1.0" encoding="utf-8"?>
<!-- Generator: Adobe Illustrator 15.0.0, SVG Export Plug-In . SVG Version: 6.00 Build 0)  -->
<!DOCTYPE svg PUBLIC "-//W3C//DTD SVG 1.1//EN" "http://www.w3.org/Graphics/SVG/1.1/DTD/svg11.dtd">
<svg version="1.1" id="Layer_1" xmlns="http://www.w3.org/2000/svg" xmlns:xlink="http://www.w3.org/1999/xlink" x="0px" y="0px"
	 width="1000.036px" height="786px" viewBox="-0.036 -79 1000.036 786" enable-background="new -0.036 -79 1000.036 786"
	 xml:space="preserve">
<path d="M-0.036,174v443c0,24.666,8.667,45.666,26,63c17.333,17.334,38.333,26.334,63,27h822c24,0,45-9,63-27s26.667-39,26-63V174
	c-16.666,18.667-35.334,35-56,49c-134.666,91.334-227.334,155.334-278,192c-21.333,16-38.333,28.334-51,37s-30.333,17.666-53,27
	s-43,13.666-61,13h-2c-18.667,0-39-4.334-61-13s-39.667-17.666-53-27s-30.333-21.666-51-37c-63.333-45.334-156-109.334-278-192
	C34.631,208.333,15.964,192-0.036,174z M-0.036,10c0,29.333,9,57.333,27,84c18,26.667,40.667,49.667,68,69
	c140,97.334,227.333,157.666,262,181c3.333,2.666,11,8.334,23,17s22,16,30,22s17.667,12,29,18s22.333,11,33,15s19.667,5.666,27,5h2
	c8,0,17-1.666,27-5s21-8.334,33-15s21.667-12.666,29-18s17.333-12.666,30-22s20.333-15,23-17c34-23.334,83-57,147-101
	s102-70.667,114-80c23.334-15.333,45-36.667,65-64s30.334-53,31-77c0-28.667-7.666-52.667-23-72s-37.334-29-66-29h-822
	c-24,0-44.667,8.667-62,26C9.631-35.667,0.631-14.667-0.036,10z"/>
</svg>
