<?xml version="1.0" encoding="utf-8"?>
<!-- Generator: Adobe Illustrator 15.0.0, SVG Export Plug-In . SVG Version: 6.00 Build 0)  -->
<!DOCTYPE svg PUBLIC "-//W3C//DTD SVG 1.1//EN" "http://www.w3.org/Graphics/SVG/1.1/DTD/svg11.dtd">
<svg version="1.1" id="Layer_1" xmlns="http://www.w3.org/2000/svg" xmlns:xlink="http://www.w3.org/1999/xlink" x="0px" y="0px"
	 width="714px" height="982.264px" viewBox="0 -150.05 714 982.264" enable-background="new 0 -150.05 714 982.264"
	 xml:space="preserve">
<path d="M0,421.164c0,15.334,5,28,15,38s22.667,15.334,38,16c19.333,0,34.333-8,45-24l127-190h25v73l-138,230
	c-3.333,5.334-5,11.334-5,18c0,9.334,3.333,17.666,10,25s15.333,11,26,11h107v152c0,16.667,6,31.334,18,44
	c12,12.667,26.667,18.667,44,18h89c17.334,0,32.334-6,45-18s18.666-26.666,18-44v-152h107c10,0,18.334-3.666,25-11
	s10.334-15.666,11-25c0-6.666-1.666-12.666-5-18l-138-230v-73h25l127,190c10.666,16,25.334,24,44,24c15.334,0,28-5.334,38-16
	s15.334-23.334,16-38c0-10.666-3-20.334-9-29l-143-215c-27.334-39.333-60-59-98-59H250c-38.667,0-71.667,19.667-99,59l-142,215
	C3,400.83,0,410.498,0,421.164z M232-24.836c0,34.667,12,64,36,88s53.667,36.333,89,37s64.666-11.667,88-37s35.666-54.667,37-88
	s-11-63-37-89s-55.333-38-88-36s-62.333,14-89,36S229.333-62.169,232-24.836z"/>
</svg>
