<?xml version="1.0" encoding="utf-8"?>
<!-- Generator: Adobe Illustrator 15.0.0, SVG Export Plug-In . SVG Version: 6.00 Build 0)  -->
<!DOCTYPE svg PUBLIC "-//W3C//DTD SVG 1.1//EN" "http://www.w3.org/Graphics/SVG/1.1/DTD/svg11.dtd">
<svg version="1.1" id="Layer_1" xmlns="http://www.w3.org/2000/svg" xmlns:xlink="http://www.w3.org/1999/xlink" x="0px" y="0px"
	 width="857.059px" height="858px" viewBox="-0.029 -79 857.059 858" enable-background="new -0.029 -79 857.059 858"
	 xml:space="preserve">
<path d="M750,670c-6.667,6.666-14.667,10-24,10H130c-10,0-18.334-3.334-25-10s-10-14.666-10-24V284h79
	c-7.334,23.334-11,47.666-11,73c0,71.334,26,132.334,78,183s114.667,76,188,76c48.667,0,93.333-11.666,134-35s73-54.666,97-94
	s36-82.666,36-130c0-25.334-3.667-49.666-11-73h75v362C760,655.334,756.667,663.334,750,670z M551,466c-33.333,32.666-74,49-122,49
	c-46,0-86.333-16.334-121-49c-34.666-32.666-51.666-72-51-118s17.666-85.333,51-118c33.333-32.667,73.667-49,121-49
	s88,16.333,122,49s51,72,51,118C601.333,394,584.333,433.334,551,466z M749,175c-7.333,7.333-16.333,11-27,11h-98
	c-10.667,0-19.667-3.667-27-11s-11-16.667-11-28V55c0-10.667,3.667-19.667,11-27s16.333-11,27-11h98c10.667-0.667,19.667,3,27,11
	s11,17,11,27v92C760,158.333,756.333,167.667,749,175z M825-46c-22-22-48-33-78-33H110c-30.666,0.667-56.666,11.667-78,33S0,1,0,31
	v638c-0.666,29.334,10,55,32,77s48,33,78,33h637c30.667-0.667,56.667-11.667,78-33c21.333-21.334,32-47,32-77V31
	C857.667,1.667,847-24,825-46z"/>
</svg>
