<?xml version="1.0" encoding="utf-8"?>
<!-- Generator: Adobe Illustrator 15.0.0, SVG Export Plug-In . SVG Version: 6.00 Build 0)  -->
<!DOCTYPE svg PUBLIC "-//W3C//DTD SVG 1.1//EN" "http://www.w3.org/Graphics/SVG/1.1/DTD/svg11.dtd">
<svg version="1.1" id="Layer_1" xmlns="http://www.w3.org/2000/svg" xmlns:xlink="http://www.w3.org/1999/xlink" x="0px" y="0px"
	 width="1000.5px" height="790.839px" viewBox="0 -7 1000.5 790.839" enable-background="new 0 -7 1000.5 790.839"
	 xml:space="preserve">
<path d="M704,344.84c-7.333,7.333-15.667,11-25,11c-67.333,0-125.667,9.667-175,29c-49.333,19.334-99.333,52-150,98
	c-8,7.334-20.667,19.666-38,37c-17.334,17.334-31,30.334-41,39c-8,7.334-16.334,11-25,11c-9.334-0.666-17.666-4.334-25-11
	s-11-15-11-25c0-8.666,3.666-17,11-25c45.334-50,89-90.666,131-122c42-31.333,90.333-56.333,145-75s114-28,178-28
	c10,0.667,18.333,4.333,25,11s10,15,10,25C714.667,329.173,711.333,337.507,704,344.84z M996,155.84c-4-21.333-8.667-44.333-14-69
	s-14-45.667-26-63s-25.333-26-40-26c-1.333-7.333-9.333-6.333-24,3s-21.333,12.333-20,9s-3.667,0.333-15,11s-17,16-17,16l-16,16
	c-15.333,14.667-36.667,25.333-64,32s-57.667,11-91,13s-66.667,3-100,3s-66.667,1.667-100,5s-60.333,8.333-81,15
	c-39.333,13.333-77,31-113,53s-68,47.667-96,77s-50,63.667-66,103c-16,39.334-24,80.334-24,123c0,20,1.666,39.334,5,58
	c0.666,4,3.666,12.334,9,25s8,19.666,8,21c-0.666,8-6.666,17-18,27s-24,20.334-38,31s-26.666,23-38,37s-17,27.666-17,41
	c0,2.666,0.334,5,1,7s1.334,3.666,2,5s1.666,3.334,3,6s2.334,4.666,3,6c6.666,11.334,11.666,19.334,15,24c3.334,4.667,9,9,17,13
	s17.666,6,29,6c10,0,21-6,33-18s22-25,30-39s16.334-27,25-39s16-18,22-18c8,0,25.666,7,53,21s43.666,21.666,49,23
	c51.333,18,104.667,27,160,27c83.333,0,164.667-20.334,244-61c82-40,148.667-89.666,200-149s85.667-130.666,103-214
	c7.333-36.667,11-72.667,11-108C1001.333,194.84,1000,177.173,996,155.84z"/>
</svg>
