<?xml version="1.0" encoding="utf-8"?>
<!-- Generator: Adobe Illustrator 15.0.0, SVG Export Plug-In . SVG Version: 6.00 Build 0)  -->
<!DOCTYPE svg PUBLIC "-//W3C//DTD SVG 1.1//EN" "http://www.w3.org/Graphics/SVG/1.1/DTD/svg11.dtd">
<svg version="1.1" id="Layer_1" xmlns="http://www.w3.org/2000/svg" xmlns:xlink="http://www.w3.org/1999/xlink" x="0px" y="0px"
	 width="857.083px" height="714.083px" viewBox="0 -7 857.083 714.083" enable-background="new 0 -7 857.083 714.083"
	 xml:space="preserve">
<path d="M0.083,600.083v71c0,10,3.333,18.334,10,25c6.667,6.667,15.333,10.334,26,11h785c10,0,18.334-3.666,25-11
	c6.667-7.333,10.334-15.666,11-25v-71c0-10-3.666-18.334-11-25c-7.333-6.666-15.666-10.334-25-11h-785c-10,0-18.667,3.666-26,11
	S-0.584,590.749,0.083,600.083z M0.083,314.083v72c0,9.334,3.333,17.666,10,25s15.333,10.666,26,10h785c10,0,18.334-3.334,25-10
	c6.667-6.666,10.334-15,11-25v-72c0-9.334-3.666-17.667-11-25c-7.333-7.333-15.666-10.667-25-10h-785c-10,0-18.667,3.333-26,10
	C2.75,295.75-0.584,304.083,0.083,314.083z M0.083,29.083v71c0,10,3.333,18.333,10,25s15.333,10.333,26,11h785
	c10,0,18.334-3.667,25-11c6.667-7.333,10.334-15.667,11-25v-71c0-10-3.666-18.667-11-26c-7.333-7.333-15.666-10.667-25-10h-785
	c-10,0-18.667,3.333-26,10S-0.583,18.417,0.083,29.083z"/>
</svg>
