<?xml version="1.0" encoding="utf-8"?>
<!-- Generator: Adobe Illustrator 15.0.0, SVG Export Plug-In . SVG Version: 6.00 Build 0)  -->
<!DOCTYPE svg PUBLIC "-//W3C//DTD SVG 1.1//EN" "http://www.w3.org/Graphics/SVG/1.1/DTD/svg11.dtd">
<svg version="1.1" id="Layer_1" xmlns="http://www.w3.org/2000/svg" xmlns:xlink="http://www.w3.org/1999/xlink" x="0px" y="0px"
	 width="857.143px" height="858px" viewBox="0 -79 857.143 858" enable-background="new 0 -79 857.143 858" xml:space="preserve">
<path d="M800,135C760,69.667,708,17.667,644-21S508.333-79,429-79S277.666-59.667,213-21S96.666,69.667,58,135
	C19.333,200.333,0,272,0,350c0,86.666,23.666,165.334,71,236s109.334,123,186,157c-2-40,0.334-73,7-99l55-233
	c-9.333-18.666-14-41.334-14-68c0-32.666,8-59.333,24-80s35.667-31,59-31c18.667-0.667,33,5.333,43,18s15,28,15,46
	c-1.333,12.666-3.667,27-7,43s-8.667,35-16,57s-12.333,39.334-15,52c-4.667,23.334-0.333,43,13,59s31.333,24,54,24
	c39.333-0.666,72-23,98-67s39-97.666,39-161c-0.667-48.667-16.667-88.333-48-119s-75-46-131-46c-63.333,0-114.333,20.333-153,61
	c-38.666,40.667-58,89-58,145c0,33.334,9.666,61.334,29,84c6,7.334,8,15.334,6,24c-1.334,2.666-3,8.334-5,17s-3.334,14.334-4,17
	c-3.334,12-10.334,15.666-21,11c-29.334-12-51.334-32.666-66-62s-22-63.334-22-102c0.666-25.334,4.666-50.333,12-75
	s19.666-48.667,37-72s37.666-43.667,61-61s52-31.667,86-43s70.667-17,110-17c53.333,0,100.667,12,142,36s73.333,54.333,96,91
	s34,76.333,34,119c0.667,56-9,106.334-29,151s-47.667,79.666-83,105s-75.333,38-120,38c-23.333,0-44.667-5.334-64-16
	s-32.667-23.334-40-38c-17.333,66-27.667,105.334-31,118c-6.667,26.666-21,57.334-43,92c40,12,80.667,18,122,18
	c77.333,0,149-19.334,215-58c66-38.667,118-90.666,156-156s57-137,57-215C859,272,840,200.333,800,135z"/>
</svg>
