<?xml version="1.0" encoding="utf-8"?>
<!-- Generator: Adobe Illustrator 15.0.0, SVG Export Plug-In . SVG Version: 6.00 Build 0)  -->
<!DOCTYPE svg PUBLIC "-//W3C//DTD SVG 1.1//EN" "http://www.w3.org/Graphics/SVG/1.1/DTD/svg11.dtd">
<svg version="1.1" id="Layer_1" xmlns="http://www.w3.org/2000/svg" xmlns:xlink="http://www.w3.org/1999/xlink" x="0px" y="0px"
	 width="782.191px" height="781.224px" viewBox="-0.142 -7 782.191 781.224" enable-background="new -0.142 -7 782.191 781.224"
	 xml:space="preserve">
<path d="M685,0.225c-35.332,11.333-67.332,31.333-96,60l-89,89l-371-89c-6-1.333-11.666,0.333-17,5l-71,71c-4,4-5.666,9-5,15
	s3.666,10.667,9,14l284,155l-145,145l-108-30c-0.666,0-2.334,0-5,0c-4.666,0-8.666,1.666-12,5l-54,54c-4,4.666-5.666,9.334-5,14
	c0.668,6,3,10.334,7,13l141,105l105,141c3.334,4,8,6.334,14,7h1c5.334,0,9.666-1.666,13-5l53-53c5.334-5.334,7-11.334,5-18l-30-108
	l145-145l155,284c2.668,4.666,6.668,7.667,12,9c1.334,0,2.668,0,4,0c4.668,0,8.334-1,11-3l71-54c6.668-4.666,9-10.666,7-18l-90-388
	l90-90c29.334-28,49.668-60,61-96c11.334-36,9-63.667-7-83C748-9.108,720.334-11.108,685,0.225z"/>
</svg>
