<?xml version="1.0" encoding="utf-8"?>
<!-- Generator: Adobe Illustrator 15.0.0, SVG Export Plug-In . SVG Version: 6.00 Build 0)  -->
<!DOCTYPE svg PUBLIC "-//W3C//DTD SVG 1.1//EN" "http://www.w3.org/Graphics/SVG/1.1/DTD/svg11.dtd">
<svg version="1.1" id="Layer_1" xmlns="http://www.w3.org/2000/svg" xmlns:xlink="http://www.w3.org/1999/xlink" x="0px" y="0px"
	 width="857.019px" height="858.019px" viewBox="0 -79 857.019 858.019" enable-background="new 0 -79 857.019 858.019"
	 xml:space="preserve">
<path d="M679,279c49.333,0,91.333-17.666,126-53s52-77.334,52-126S839.667,9.333,805-26s-76.667-53-126-53s-91.667,17.667-127,53
	s-52.667,77.334-52,126c0,4.666,0.333,11,1,19L300,219c-34-32-74.334-48-121-48c-50,0-92.334,17.666-127,53
	C17.333,259.334,0,301.334,0,350c0,48.667,17.333,90.667,52,126c34.666,35.333,77,53,127,53c46.666,0,87-16,121-48l201,100
	c-0.667,8-1,14.333-1,19c0,49.333,17.333,91.333,52,126s77,52.333,127,53s92-17,126-53s51.333-78,52-126s-16.667-90-52-126
	s-77.333-53.667-126-53c-47.333,0-88,16-122,48L356,369c0.667-8,1-14.334,1-19s-0.333-11-1-19l201-100C591,263,631.667,279,679,279z
	"/>
</svg>
