<?xml version="1.0" encoding="utf-8"?>
<!-- Generator: Adobe Illustrator 15.0.0, SVG Export Plug-In . SVG Version: 6.00 Build 0)  -->
<!DOCTYPE svg PUBLIC "-//W3C//DTD SVG 1.1//EN" "http://www.w3.org/Graphics/SVG/1.1/DTD/svg11.dtd">
<svg version="1.1" id="Layer_1" xmlns="http://www.w3.org/2000/svg" xmlns:xlink="http://www.w3.org/1999/xlink" x="0px" y="0px"
	 width="879px" height="714.118px" viewBox="25 -7.117 879 714.118" enable-background="new 25 -7.117 879 714.118"
	 xml:space="preserve">
<path d="M800,105.883c39.333-24,65.667-57.333,79-100c-35.333,21.333-73.333,36-114,44c-35.333-38-79.333-57-132-57
	c-49.333,0.667-91.667,18.333-127,53s-53,77-53,127c0,13.333,1.667,27,5,41c-74.667-3.333-144-21.667-208-55
	s-118.666-77.667-164-133c-16.666,28-25,58.332-25,91c0,31.332,7.334,60,22,86s34.334,47.332,59,64c-29.334-1.334-56.666-9-82-23v2
	c0,44,13.666,82.334,41,115c27.334,32.666,62,53.334,104,62c-16,4-32,6-48,6c-10,0-21.334-1-34-3c12,36,33.334,65.666,64,89
	s65.666,35.332,105,35.998c-65.334,51.336-140,77.002-224,77.002c-16,0-30.334-0.666-43-2c83.334,54,175.334,81,276,81
	c64.667,1.332,125-8.668,181-30.002s104-48.666,144-82s74.333-72.334,103-117s50-91,64-139c14-48,21-96.333,21-145
	c0-10,0-17.667,0-23c35.333-26,65.333-57,90-93C869.333,92.549,834.667,101.882,800,105.883z"/>
</svg>
