<?xml version="1.0" encoding="utf-8"?>
<!-- Generator: Adobe Illustrator 15.0.0, SVG Export Plug-In . SVG Version: 6.00 Build 0)  -->
<!DOCTYPE svg PUBLIC "-//W3C//DTD SVG 1.1//EN" "http://www.w3.org/Graphics/SVG/1.1/DTD/svg11.dtd">
<svg version="1.1" id="Layer_1" xmlns="http://www.w3.org/2000/svg" xmlns:xlink="http://www.w3.org/1999/xlink" x="0px" y="0px"
	 width="557px" height="325px" viewBox="43 143 557 325" enable-background="new 43 143 557 325" xml:space="preserve">
<path d="M43,422c0,4.666,2,9,6,13l28,27c3.333,4,7.333,6,12,6s9-2,13-6l220-219l219,219c3.334,4,7.666,6,13,6s9.666-2,13-6l27-27
	c4-4,6-8.334,6-13s-2-9-6-13L334,149c-3.333-4-7.333-6-12-6s-9,2-13,6L49,409C45,412.334,43,416.666,43,422z"/>
</svg>
